<svg xmlns="http://www.w3.org/2000/svg" xml:space="preserve" viewBox="0 0 512 512"><path d="M492.3 443.1c0 34.2-27.7 61.9-61.9 61.9H80.7c-34.2 0-61.9-27.7-61.9-61.9V93.4c0-34.2 27.7-61.9 61.9-61.9h349.7c34.2 0 61.9 27.7 61.9 61.9z" style="fill:#1e1e1e"/><path d="M492.3 418.4c0 34.2-27.7 61.9-61.9 61.9H80.7c-34.2 0-61.9-27.7-61.9-61.9V68.6c0-34.2 27.7-61.9 61.9-61.9h349.7c34.2 0 61.9 27.7 61.9 61.9z" style="fill:#464646;stroke:#21759b;stroke-width:2;stroke-miterlimit:10"/><path d="M308.3 325.5c17.3-5.4 31.9-13.8 43.4-28.5-62.9 36.3-125 35.2-187 .7 1.5 3.9 8.5 11.1 17.7 16.6 7.1 4.2 14.8 7.6 22.4 11.4-.7.9-1.7 2.3-2.8 3.7-2.6 3.3-5.6 6.3-7.8 9.8-2.9 4.6-6.5 5.9-12 5.3-22.6-2.6-42.5-10.5-58.8-26.8-5.9-5.8-7.6-12-7.2-20.4 2-38.4 11.1-75.1 25.6-110.5 2-4.9 4.6-9.6 6.6-14.5 1.4-3.5 3.8-5.8 6.9-7.8 15.2-10.1 31.5-17.4 49.6-20.5 3.7-.6 7.4-1.1 11.2-1.3 1.4-.1 2.9 1 4.2 2.1-15 5.1-29.5 10.5-43 18.4-5.4 3.1-10.5 6.8-15.7 10.2-1.1.7-2.1 1.7-3.4 2.8 64.1-30.6 127.9-32.1 191.8-.8-17.1-13.8-36.8-22.4-57.5-29.1 1.5-3.1 3.6-3.8 6.9-3.5 22.4 2.1 42.4 10.3 60.6 23.1 1.7 1.2 3.3 2.9 4.3 4.8 14.2 28.7 23.7 58.8 29.1 90.3 2.5 14.7 3.8 29.6 4.1 44.5 0 1.9-.7 4.2-1.9 5.7-12 15.6-27.9 25.2-46.7 30.1-7.2 1.9-14.8 2.5-22.2 3.5-1.2.2-2.9-.2-3.6-1-5-6.1-9.7-12-14.8-18.3m-96.4-39.6q8.1 0 14.4-5.1c7-5.7 9.3-13.4 10.4-22.2 2.2-18.5-18.7-32-34.9-24.4-11.4 5.4-17.4 19.3-13.8 32.3 3.2 11.7 12.7 19.4 23.9 19.4m87.9.4c2.8-.7 5.8-1 8.4-2.1 16.3-6.5 21.5-28.3 10.3-42.9-8.9-11.5-25.5-12.6-35.7-2.2-6.6 6.7-8.6 14.9-7.6 24.1 1.6 12.6 12.4 22.7 24.6 23.1" style="fill:#fff"/></svg>