<svg xmlns="http://www.w3.org/2000/svg" id="svg1" width="60" height="60" x="0" y="0" viewBox="0 0 60 60"><path id="path832" d="M11.934 39.677q0-.932.399-1.717a3.05 3.05 0 0 1 1.113-1.242 3 3 0 0 1 1.64-.452q.488 0 1.002.118.516.111.868.386a.9.9 0 0 1 .351.745.9.9 0 0 1-.222.626.69.69 0 0 1-.545.252 1 1 0 0 1-.311-.052q-.146-.053-.299-.112a2 2 0 0 0-.316-.105 1.8 1.8 0 0 0-.416-.041q-.458 0-.774.217a1.3 1.3 0 0 0-.468.574 2 2 0 0 0-.153.803q0 .433.153.808.152.37.439.586.293.217.691.217.452 0 .909-.17.456-.17.545-.17.21 0 .386.123t.276.322q.105.194.105.399 0 .434-.381.732-.375.3-.896.434a3.7 3.7 0 0 1-.944.141 3.1 3.1 0 0 1-1.277-.258 3 3 0 0 1-1.002-.733 3.3 3.3 0 0 1-.65-1.101 4 4 0 0 1-.223-1.33m-3.972 2.314v-4.629a.97.97 0 0 1 .257-.691.88.88 0 0 1 .674-.281.96.96 0 0 1 .586.181.96.96 0 0 1 .352.416q.603-.72 1.295-.721.38 0 .668.276.292.27.292.697 0 .44-.275.639-.27.2-.896.381-.639.181-.862.457-.222.27-.222.972v2.303q0 .416-.264.703a.87.87 0 0 1-.674.281.88.88 0 0 1-.674-.281 1 1 0 0 1-.258-.703m-2.702 0v-4.629q0-.416.258-.691a.88.88 0 0 1 .674-.281.87.87 0 0 1 .674.281.96.96 0 0 1 .263.691v4.629a1 1 0 0 1-.263.703.87.87 0 0 1-.674.281.88.88 0 0 1-.674-.281 1 1 0 0 1-.258-.703m-.181-7.295q0-.457.328-.791a1.06 1.06 0 0 1 .785-.334q.462 0 .791.328.328.329.328.797 0 .486-.328.809a1.1 1.1 0 0 1-.791.322 1.07 1.07 0 0 1-.785-.328 1.1 1.1 0 0 1-.328-.803m-6.036 7.36.211-1.577h-.45q-.3 0-.44-.17a.64.64 0 0 1-.14-.416.6.6 0 0 1 .14-.404q.14-.17.44-.17h.609l.193-1.441h-.457q-.293 0-.434-.17a.65.65 0 0 1-.14-.416q0-.246.14-.41.141-.17.434-.17h.633l.258-1.881q.041-.299.187-.463.153-.164.48-.164.236 0 .387.135a.44.44 0 0 1 .153.357q0 .1-.047.434l-.217 1.582h1.084l.252-1.881q.041-.299.187-.463.153-.164.48-.164.235 0 .388.135c.153.135.152.209.152.357q0 .1-.047.434l-.217 1.582h.457q.305 0 .44.17.14.164.14.41 0 .24-.14.416-.14.17-.44.17h-.61l-.192 1.441h.457q.305 0 .439.164.135.165.135.41c0 .245-.047.303-.14.416q-.135.17-.434.17h-.64l-.251 1.875a.84.84 0 0 1-.188.457q-.146.165-.48.164a.6.6 0 0 1-.393-.128.46.46 0 0 1-.152-.364q0-.117.053-.427l.217-1.577H.456l-.252 1.875q-.041.3-.194.463-.146.158-.48.158a.6.6 0 0 1-.387-.128.46.46 0 0 1-.152-.364q0-.117.052-.427m2.672-2.737.194-1.441H.819l-.193 1.441z" style="stroke-width:1pt;fill:#333" transform="translate(8.79 -72.349)scale(2.6872)"/></svg>