<svg xmlns="http://www.w3.org/2000/svg" xml:space="preserve" version="1.0" viewBox="0 0 600 450"><path d="M412.7 82.1H187.5c-17 0-30.7 13.7-30.7 30.7V338c0 17 13.7 30.7 30.7 30.7h225.2c17 0 30.7-13.7 30.7-30.7V112.8c0-17-13.7-30.7-30.7-30.7M228.5 327.7c-17 0-30.7-13.7-30.7-30.7s13.7-30.7 30.7-30.7 30.7 13.7 30.7 30.7-13.8 30.7-30.7 30.7m100.8 0h-22c-3.8 0-7.1-3-7.3-6.8-3.3-51.2-44.3-92.1-95.4-95.4-3.8-.2-6.8-3.5-6.8-7.3v-22c0-4.2 3.5-7.5 7.7-7.3 70.7 3.8 127.3 60.5 131.1 131.1.2 4.2-3.2 7.7-7.3 7.7m65.9 0h-22c-3.9 0-7.1-3.1-7.3-7.1-3.6-87.3-73.7-157.5-161.1-161.1-3.9-.2-7.1-3.4-7.1-7.3v-22c0-4.1 3.4-7.5 7.5-7.3 107.4 3.9 193.3 90.3 197.2 197.2.2 4.2-3.1 7.6-7.2 7.6" style="fill:#ec6525"/></svg>