<svg xmlns="http://www.w3.org/2000/svg" xmlns:xlink="http://www.w3.org/1999/xlink" width="512" height="512" aria-label="XMPP" viewBox="0 0 512 512"><rect width="512" height="512" fill="#fff" rx="15%"/><linearGradient id="a" x1=".5" x2=".5" y1="1" y2="0%"><stop offset=".3" stop-color="#1be"/><stop offset="1" stop-color="#025"/></linearGradient><path id="b" fill="url(#a)" d="M379.9 170c0 212.7-220.9 272-220.9 272v2c148-12 311-165 316-311Z"/><g fill="#e61"><path id="c" d="M344 183c-3 120-104 233-187 258v2c127-36 273-161 256-286Z"/></g><g fill="#d51"><path id="d" d="M396 163.4c.1 130-95.3 245-252 278v5c173-13 284-179.7 272-290.7z"/></g><g transform="matrix(-1 0 0 1 512 0)"><use xlink:href="#b"/><use xlink:href="#c" fill="#ac6"/><use xlink:href="#d" fill="#493"/></g></svg>